<?xml version="1.0" encoding="UTF-8"?>
<svg width="162px" height="162px" viewBox="0 0 162 162" version="1.1" xmlns="http://www.w3.org/2000/svg" xmlns:xlink="http://www.w3.org/1999/xlink">
    <title>endless</title>
    <g id="Page-1" stroke="none" stroke-width="1" fill="none" fill-rule="evenodd">
        <g id="Full-HD-Copy" transform="translate(-2092, -451)" fill="#000000">
            <g id="endless" transform="translate(2092, 451)">
                <path d="M162,81 C162,125.735085 125.735085,162 81,162 C36.264915,162 0,125.735085 0,81 C0,36.264915 36.264915,0 81,0 C125.735085,0 162,36.264915 162,81 Z M31.1447025,56.7334125 C21.6915975,66.1865175 21.6915975,81.51273 31.1447025,90.965835 L65.3769225,56.7334125 C55.92402,47.28051 40.597605,47.28051 31.1447025,56.7334125 Z M69.0672825,90.965835 C59.61438,81.51273 59.61438,66.1865175 69.0672825,56.7334125 C78.5203875,47.28051 93.8466,47.28051 103.299705,56.7334125 L69.0672825,90.965835 Z M106.989863,56.7334125 C97.5367575,66.1865175 97.5367575,81.51273 106.989863,90.965835 L141.222082,56.7334125 C131.76918,47.28051 116.442765,47.28051 106.989863,56.7334125 Z M20.7779175,105.266588 C30.23082,114.719693 45.557235,114.719693 55.0101375,105.266588 C64.4632425,95.813685 64.4632425,80.48727 55.0101375,71.034165 L20.7779175,105.266588 Z M92.93292,105.266588 C83.479815,114.719693 68.1536025,114.719693 58.7004975,105.266588 L92.93292,71.034165 C102.385823,80.48727 102.385823,95.813685 92.93292,105.266588 Z M96.6230775,105.266588 C106.07598,114.719693 121.402395,114.719693 130.855298,105.266588 C140.308402,95.813685 140.308402,80.48727 130.855298,71.034165 L96.6230775,105.266588 Z" id="Shape"></path>
            </g>
        </g>
    </g>
</svg>