<?xml version="1.0" encoding="UTF-8"?>
<svg width="506px" height="147px" viewBox="0 0 506 147" version="1.1" xmlns="http://www.w3.org/2000/svg" xmlns:xlink="http://www.w3.org/1999/xlink">
    <title>FAC Small Black</title>
    <g id="Page-1" stroke="none" stroke-width="1" fill="none" fill-rule="evenodd">
        <g id="Full-HD-Copy" transform="translate(-87, -466)" fill="#161616" fill-rule="nonzero">
            <g id="FAC-Small-Black" transform="translate(87, 466)">
                <polygon id="Path" points="2 2 98 2 98 32.9208303 35.4228398 32.9208303 35.4228398 56.3985332 89.7547547 56.3985332 77.4327399 87.2439264 35.4645245 87.2439264 35.4645245 130 2 130"></polygon>
                <path d="M255.629316,79.8808919 C250.626215,92.7604506 239.202467,101.63973 225.860864,101.907532 C207.51616,102.284127 192.340087,86.1072672 191.939839,65.7878596 C191.506237,44.4307227 206.182,28.6974087 224.376611,28.3291822 C237.801599,28.0613811 249.533871,36.6979663 255.020605,49.2511423 L288.249535,48.2134131 C282.329199,26.4545746 267.169802,9.92622611 244.489077,2.92992266 C214.774728,-6.31096399 182.703209,6.88284865 168,34.3965507 L204.372545,126.394594 C205.056302,126.637288 205.740059,126.863246 206.440493,127.080834 C240.786782,137.684083 277.14265,118.494461 287.640824,84.2242908 C288.196724,82.4947421 288.649783,80.7624038 289,79.0272759 L255.629316,79.8808919 Z" id="Path"></path>
                <polygon id="Path" points="195.92611 127.275882 195.576471 126.395783 159.52207 34.9911597 158.048593 31.2528322 146.510519 2 119.047238 2 68 130 105.119966 130 131.534331 56.3985332 133.449019 56.3985332 159.555369 130 197 130"></polygon>
                <rect id="Rectangle" x="0" y="143" width="506" height="4"></rect>
                <polygon id="Path" points="330 8.79292929 320.853556 8.79292929 320.853556 37 313.146444 37 313.146444 8.79292929 304 8.79292929 304 2 330 2"></polygon>
                <polygon id="Path" points="362 2 362 37 354.110917 37 354.110917 22.496633 340.838295 22.496633 340.838295 37 333 37 333 2 340.838295 2 340.838295 16.3939394 354.068593 16.3939394 354.068593 2"></polygon>
                <polygon id="Path" points="375.631185 8.79292929 375.631185 16.2508418 388.568174 16.2508418 388.568174 22.2946128 375.631185 22.2946128 375.631185 30.1986532 391 30.1986532 391 37 368 37 368 2 391 2 391 8.79292929"></polygon>
                <path d="M324.593701,74.9101394 L313.3979,74.9101394 L310.878215,83 L303,83 L315.447244,48 L322.67874,48 L335,82.9663623 L327.113386,82.9663623 L324.593701,74.9101394 Z M322.695538,68.9646804 L319.100787,57.6792407 L318.806824,57.6792407 L315.296063,68.9394522 L322.695538,68.9646804 Z" id="Shape"></path>
                <path d="M348.888819,70.7241996 L344.809987,70.7241996 L344.809987,83 L337,83 L337,48.0068171 L350.432161,48.0068171 C352.891215,47.9314676 355.328789,48.4818047 357.512877,49.6054477 C359.332524,50.55962 360.830242,52.0222693 361.820666,53.8123704 C362.758834,55.5567566 363.242718,57.5061372 363.228329,59.4833022 C363.255189,61.6743367 362.639432,63.8258557 361.45603,65.6758924 C360.262254,67.5356298 358.495795,68.9637551 356.41897,69.7481935 L364,83 L355.791457,83 L348.888819,70.7241996 Z M344.809987,64.3801602 L349.143216,64.3801602 C350.745405,64.4326376 352.330771,64.0422964 353.722362,63.2527049 C355.003864,62.4356256 355.722491,60.9803978 355.58794,59.4748883 C355.714789,58.0204155 355.002369,56.6197043 353.747802,55.8569348 C352.33829,55.0941072 350.747709,54.7220841 349.143216,54.7799626 L344.809987,54.7799626 L344.809987,64.3801602 Z" id="Shape"></path>
                <polygon id="Path" points="392 54.808127 382.853556 54.808127 382.853556 83 375.146444 83 375.146444 54.808127 366 54.808127 366 48 392 48"></polygon>
                <polygon id="Path" points="396 48 404 48 404 83 396 83"></polygon>
                <path d="M415.08548,82.3168073 C413.203899,81.3337943 411.629754,79.8379136 410.539898,77.9972238 C409.541096,76.329617 409.00875,74.417513 409,72.4661517 L409,72.0651072 L417.366506,72.0651072 L417.366506,72.4160211 C417.374586,73.6294814 417.826516,74.7966606 418.634657,75.6912179 C419.588034,76.7301195 420.95282,77.2766428 422.348529,77.1784246 C423.567341,77.2396379 424.766748,76.8508122 425.724777,76.0839073 C426.564927,75.3773011 427.036062,74.3164042 427.001163,73.209755 C427.03474,72.2264347 426.61827,71.2826221 425.873002,70.6530964 C425.08376,69.9897219 424.144216,69.5360548 423.139065,69.3329915 L419.219324,68.4974822 C416.907776,67.9549878 414.728437,66.9431844 412.812689,65.5230688 C410.830859,64.0692825 409.8372,61.6880807 409.83171,58.3794636 C409.779459,56.4094215 410.316309,54.4694899 411.371608,52.8149711 C412.434436,51.2357743 413.920206,49.9978986 415.653678,49.2473461 C417.613006,48.3906237 419.729447,47.966276 421.862679,48.0024371 C424.239672,47.9587249 426.591335,48.5036116 428.713991,49.5899049 C430.498771,50.4885513 432.003625,51.8708097 433.061939,53.5836398 C434.024738,55.1410163 434.535594,56.942113 434.535959,58.7805081 L434.535959,59.0311609 L426.169453,59.0311609 L426.169453,58.8807692 C426.175839,57.7860603 425.796134,56.7251294 425.098936,55.8896457 C424.203518,54.9090176 422.91172,54.4032505 421.599167,54.5194103 C420.517412,54.464467 419.45708,54.8390587 418.642892,55.563797 C417.903476,56.2700955 417.501141,57.266262 417.539435,58.2959127 C417.503902,59.3091016 417.962921,60.2749387 418.766413,60.8776366 C419.635149,61.5259106 420.637478,61.9658392 421.697984,62.1643211 L425.667133,63.0583161 C428.087232,63.5501027 430.350165,64.6407047 432.254933,66.2332517 C434.083048,67.7872992 434.997105,70.0598847 434.997105,73.0342981 C435.046394,75.0950594 434.465287,77.1207125 433.333685,78.8327332 C432.190373,80.5124246 430.607511,81.8348378 428.763399,82.651011 C426.707129,83.5699432 424.479908,84.0287364 422.233243,83.9961811 C419.749596,84.0529755 417.291716,83.475494 415.08548,82.3168073 L415.08548,82.3168073 Z" id="Path"></path>
                <polygon id="Path" points="464 54.808127 454.853556 54.808127 454.853556 83 447.146444 83 447.146444 54.808127 438 54.808127 438 48 464 48"></polygon>
                <path d="M473.101533,82.3542944 C471.213741,81.3718656 469.634334,79.8729017 468.541874,78.026869 C467.547115,76.3538859 467.014509,74.4398331 467,72.4857555 L467,72.0839829 L475.418466,72.0839829 L475.418466,72.4355339 C475.426557,73.6511972 475.879067,74.8204953 476.688244,75.7166766 C477.630251,76.7529834 478.978658,77.3084994 480.365655,77.2316941 C481.585833,77.291495 482.786266,76.90213 483.746234,76.1351897 C484.585406,75.4264279 485.054229,74.3633184 485.016012,73.2558196 C485.051651,72.2721216 484.637799,71.3268437 483.894649,70.6945194 C483.113292,70.0357567 482.184663,69.5816506 481.190186,69.372018 L477.273662,68.5349918 C474.956038,67.9932399 472.770877,66.9794967 470.850562,65.5551785 C468.86619,64.098753 467.871255,61.7132283 467.865758,58.3986045 C467.817044,56.4254414 468.354289,54.4830477 469.407632,52.82401 C470.471823,51.2419462 471.9595,50.0018232 473.695195,49.2499081 C475.657337,48.3926082 477.776283,47.967532 479.912162,48.0027391 C482.279046,47.9566116 484.621661,48.4936979 486.739283,49.5679781 C488.524716,50.4751857 490.028481,51.8655944 491.084563,53.5857039 C492.048934,55.1400209 492.563235,56.9383446 492.56872,58.7752663 L492.56872,59.0263742 L484.191481,59.0263742 L484.191481,58.8757095 C484.181905,57.7900996 483.793325,56.7431279 483.094854,55.921007 C482.197571,54.9396716 480.904652,54.4331967 479.590595,54.548284 C478.505026,54.493697 477.440931,54.8687733 476.622282,55.5945667 C475.88404,56.3030109 475.484098,57.301226 475.525655,58.3316424 C475.486721,59.3454536 475.943409,60.3133922 476.745962,60.9180534 C477.617941,61.5691706 478.624619,62.0100045 479.689539,62.2070737 L483.66378,63.0608405 C486.0872,63.5528578 488.353189,64.6455131 490.260032,66.24154 C492.090492,67.7984088 492.997476,70.07512 492.997476,73.0549333 C493.043166,75.1034612 492.467483,77.1167409 491.348414,78.8220438 C490.207578,80.5084586 488.621537,81.8342325 486.772264,82.6472536 C484.713356,83.5678541 482.483277,84.0274802 480.23373,83.9948658 C477.75875,84.0604688 475.306923,83.4964916 473.101533,82.3542944 Z" id="Path"></path>
                <path d="M499.088206,57.6494454 C501.352411,56.7597361 502.484514,55.413692 502.484514,53.6113131 C502.484514,52.6900335 502.289226,52.1045474 501.907141,51.8892951 C501.374433,51.592011 500.77451,51.4406644 500.166534,51.4501805 C499.205384,51.5387372 498.26552,51.1270359 497.670248,50.3566991 C496.637974,48.7368455 496.812352,46.6148956 498.094786,45.190645 C498.960866,44.3525033 500.135662,43.9241334 501.329769,44.0110627 C503.027923,44.0110627 504.242103,44.519058 504.929855,45.5178284 C505.638998,46.5760874 506.012281,47.828835 505.999692,49.108236 L505.999692,51.303809 C505.999692,55.981958 503.695863,58.8806883 499.088206,60 L499.088206,57.6494454 Z" id="Path"></path>
                <polygon id="Path" points="302 95 309.70894 95 317.858628 121.611431 318.149688 121.611431 326.299376 95 334 95 322.939709 130 313.068607 130"></polygon>
                <path d="M342.250461,127.586629 C339.852453,126.000412 337.962481,123.753678 336.807733,121.116503 C335.57721,118.283894 334.961636,115.221357 335.001851,112.132078 C334.966759,109.016366 335.590791,105.928574 336.832815,103.072225 C339.243732,97.3754789 344.91926,93.7683023 351.08758,94.012372 C357.21187,93.7606773 362.841419,97.3689105 365.183494,103.047082 C366.4179,105.93179 367.035915,109.043688 366.997736,112.182364 C367.042464,115.289154 366.423884,118.369609 365.183494,121.217075 C364.043642,123.840111 362.163355,126.071671 359.774207,127.636915 C354.361678,130.805604 347.661508,130.786359 342.267182,127.586629 L342.250461,127.586629 Z M356.722601,119.943164 C358.140375,117.573965 358.840419,114.842658 358.737497,112.081792 C358.827459,109.307048 358.137994,106.562778 356.747683,104.161754 C355.738783,102.481421 354.046542,101.328148 352.116723,101.005725 C350.186904,100.683303 348.213013,101.224061 346.715004,102.485556 C345.491764,103.58642 344.585238,104.995838 344.089786,106.567099 C343.489598,108.345583 343.192819,110.212775 343.211926,112.090173 C343.12399,114.833515 343.823304,117.544525 345.226823,119.901259 C346.46001,121.880871 348.620152,123.087792 350.948335,123.098064 C353.276517,123.108205 355.447107,121.920269 356.697519,119.951545 L356.722601,119.943164 Z" id="Shape"></path>
                <polygon id="Path" points="372 95 380 95 380 130 372 130"></polygon>
                <path d="M392.337219,127.50964 C389.931443,125.869218 388.035953,123.584815 386.867557,120.917723 C384.377481,115.216832 384.377481,108.735839 386.867557,103.034948 C388.041467,100.378022 389.936296,98.1031207 392.337219,96.4681591 C394.895272,94.7813304 397.910064,93.9216526 400.973087,94.0056131 C405.055091,94.0056131 408.388821,95.1977981 410.974277,97.582168 C413.601008,100.046812 415.363379,103.292434 416,106.837655 L408.461415,106.837655 C408.086308,105.159539 407.188971,103.643486 405.898296,102.50726 C404.558049,101.337752 402.826574,100.715751 401.048473,100.76505 C398.633607,100.645669 396.341691,101.836413 395.05111,103.880925 C393.613057,106.323957 392.914732,109.13174 393.04082,111.963771 C393.04082,115.347678 393.710917,118.067088 395.05111,120.122002 C396.347906,122.156909 398.638665,123.337454 401.048473,123.212748 C402.785685,123.269958 404.480921,122.672006 405.797782,121.537547 C407.033532,120.475674 407.925696,119.070404 408.3609,117.500312 L415.773842,117.500312 C415.151704,120.957112 413.412672,124.114365 410.823505,126.487767 C408.102858,128.878722 404.567119,130.132245 400.947958,129.988938 C397.891666,130.062767 394.886265,129.197419 392.337219,127.50964 L392.337219,127.50964 Z" id="Path"></path>
                <polygon id="Path" points="427.631185 101.801347 427.631185 109.250842 440.576362 109.250842 440.576362 115.294613 427.631185 115.294613 427.631185 123.198653 443 123.198653 443 130 420 130 420 95 443 95 443 101.801347"></polygon>
            </g>
        </g>
    </g>
</svg>