<?xml version="1.0" encoding="UTF-8"?>
<svg width="190px" height="162px" viewBox="0 0 190 162" version="1.1" xmlns="http://www.w3.org/2000/svg" xmlns:xlink="http://www.w3.org/1999/xlink">
    <title>Combined Shape</title>
    <g id="Page-1" stroke="none" stroke-width="1" fill="none" fill-rule="evenodd">
        <g id="Full-HD-Copy" transform="translate(-678, -451)" fill="#000000">
            <path d="M868,451 L868,557 L776,557 L724,613 L724,557 L678,557 L678,451 L868,451 Z M835,471 L823,471 L823,537 L835,537 L835,471 Z M754,471 L711,471 L711,537 L723,537 L723,510 L751,510 L751,501 L723,501 L723,481 L754,481 L754,471 Z M771,471 L760,471 L781,510 L767,537 L779,537 L816,471 L803,471 L788,500 L771,471 Z" id="Combined-Shape"></path>
        </g>
    </g>
</svg>