<?xml version="1.0" encoding="UTF-8"?>
<svg width="162px" height="162px" viewBox="0 0 162 162" version="1.1" xmlns="http://www.w3.org/2000/svg" xmlns:xlink="http://www.w3.org/1999/xlink">
    <title>Square Logo</title>
    <g id="Page-1" stroke="none" stroke-width="1" fill="none" fill-rule="evenodd">
        <g id="Full-HD-Copy" transform="translate(-971, -451)" fill="#000000" fill-rule="nonzero">
            <g id="Square-Logo" transform="translate(971, 451)">
                <path d="M76.9500004,0 C79.5031316,0 82.0562718,0 84.6328404,0.052932 C84.8666661,0.1548507 85.0746282,0.2262957 85.2878178,0.24943335 C88.164661,0.5616567 91.0600254,0.7524369 93.9163335,1.19548905 C103.07548,2.61619305 111.730765,5.58537645 119.821482,10.1015367 C136.585538,19.4590717 148.646229,33.037759 155.946882,50.795435 C158.944227,58.0860036 160.752118,65.689893 161.417432,73.5518697 C161.568897,75.3417484 161.61969,77.1400365 161.736493,78.9331699 C161.745868,79.0772283 161.908558,79.211298 162,79.3500005 C162,80.3531438 162,81.3562962 161.948585,82.3783177 C161.83993,82.6037663 161.74574,82.8077641 161.731165,83.0173008 C161.571735,85.3073186 161.499482,87.6060155 161.261408,89.8875096 C160.240705,99.6687749 157.464386,108.946985 152.965229,117.681666 C145.788346,131.614884 135.449488,142.612006 121.965024,150.616361 C112.866807,156.017048 103.07082,159.501197 92.586411,160.940809 C89.3789067,161.381232 86.1256536,161.48725 82.8945286,161.760279 C82.7076054,161.776062 82.5312657,161.9172 82.3500005,162 C81.3968358,162 80.4436803,162 79.4702276,161.948438 C79.2410345,161.848444 79.0325962,161.760004 78.8231328,161.757496 C73.8360219,161.69773 68.9090748,161.105219 64.0391422,160.051209 C47.7554584,156.526941 33.8353551,148.745032 22.3284513,136.707422 C12.198227,126.110001 5.4919446,113.626767 2.10732,99.3645909 C1.1950689,95.5205297 0.59649,91.6233036 0.27453735,87.6838994 C0.2594823,87.4996861 0.0949284,87.327686 0,87.1500004 C0,83.0468633 0,78.9437352 0.04828575,74.8256841 C0.15854835,74.6326314 0.2556237,74.4585759 0.2769162,74.2756994 C0.43854675,72.8875126 0.55943175,71.4942036 0.74096355,70.1087727 C1.93149015,61.0228094 4.6406832,52.4042135 8.80547715,44.2491216 C13.023195,35.9904012 18.5110719,28.6724239 25.2461773,22.2938809 C31.4775654,16.3923837 38.4641605,11.5917509 46.2188191,7.91098815 C53.4820683,4.4634723 61.0848637,2.1241389 69.048528,1.0103124 C71.4926701,0.6684663 73.9619206,0.50714745 76.4180562,0.24785175 C76.6020405,0.2284284 76.7729923,0.0855096 76.9500004,0 M152.997629,80.1786534 C152.903934,74.8425297 152.355964,69.5560964 151.053241,64.3750859 C145.646036,42.870374 133.075892,26.9409261 113.457807,16.690191 C102.792225,11.1172697 91.3216923,8.671131 79.2764837,8.93911785 C74.1120717,9.0540183 69.009792,9.63839535 64.0066595,10.9130097 C42.6876531,16.3443162 26.8660176,28.8296292 16.6484406,48.277094 C11.0880814,58.8603199 8.6058567,70.2394872 8.81662605,82.204926 C8.8885362,86.2873173 9.2664492,90.3315678 10.039291,94.3382359 C13.0195729,109.789005 20.1410962,123.037153 31.7556316,133.632734 C49.9039219,150.188846 71.278629,156.141449 95.3541234,151.527878 C111.881049,148.360831 125.555897,139.947364 136.316181,127.012574 C147.544107,113.51565 152.989234,97.8728856 152.997629,80.1786534 Z" id="Shape"></path>
                <path d="M43.8111579,74.3077138 C45.6871832,71.3394429 46.5765012,68.1569376 46.5669755,64.6899733 C46.5460256,57.0652595 46.5099459,49.4396425 46.6012806,41.8158549 C46.6843081,34.8857607 52.3855503,28.8049091 59.2705685,28.1107596 C67.4304995,27.2880694 74.2770013,32.7499218 75.2813073,40.9000609 C75.3640129,41.5712524 75.3536736,42.2563515 75.3539218,42.9350037 C75.3579813,54.083141 75.3548183,65.2312832 75.358087,76.3794206 C75.3589651,79.3729167 77.5032345,81.7757908 80.4696872,82.1286581 C83.2072581,82.4543001 85.8739477,80.5825287 86.5416706,77.8097094 C86.704397,77.1339465 86.7454878,76.4150327 86.7462602,75.7158464 C86.7584062,64.7438753 86.7548572,53.7718904 86.7547559,42.7999054 C86.7546732,34.0015051 94.4275512,27.1164144 103.145371,28.0923451 C110.815334,28.9509771 116.429958,35.2568095 116.433756,43.0069466 C116.437433,50.5058754 116.372621,58.0058824 116.477807,65.5034427 C116.586883,73.2787197 122.212605,80.0595272 129.787137,81.7054884 C131.07718,81.9858135 132.415899,82.0797099 133.738197,82.1639198 C136.185493,82.3197687 138.03707,84.2286176 138,86.6419431 C137.961637,89.0648075 135.981253,90.9835087 133.513967,90.9877021 C121.702736,91.007757 111.215098,82.8183468 108.411887,71.2582376 C107.907258,69.1772083 107.657173,66.9885273 107.629727,64.845177 C107.535933,57.5233409 107.601914,50.1995417 107.589804,42.8765166 C107.585244,40.1158352 105.782968,37.7532689 103.203922,37.0528086 C100.525114,36.3252496 97.7449535,37.466414 96.3487314,39.8756059 C95.7675023,40.8785176 95.5406985,41.9715518 95.5410662,43.1258194 C95.5445694,54.1984655 95.5511803,65.2711163 95.5402755,76.3437533 C95.5333336,83.382481 90.8011266,89.2356698 83.9793675,90.6850457 C75.2063986,92.5489648 66.6967685,85.9068821 66.595669,76.9171774 C66.4666454,65.4439878 66.53612,53.9685678 66.5166872,42.49412 C66.5094326,38.2114332 62.1256054,35.4930298 58.3892912,37.4848168 C56.4639597,38.5111958 55.4297023,40.1623641 55.4261073,42.3758417 C55.4141726,49.7240275 55.4241534,57.0722503 55.4209307,64.420459 C55.4181401,70.7779954 53.5842262,76.5218596 49.5023641,81.4296422 C44.4567631,87.4961624 37.9595742,90.6381344 30.0627795,90.9850202 C27.1488603,91.1130263 25.4263784,89.2132279 25.0748863,87.3664329 C24.5882515,84.8095624 26.5343766,82.2377983 29.1402438,82.1890713 C34.1502502,82.0953869 38.4483652,80.3779437 41.9107483,76.7107492 C42.5967685,75.9841535 43.1616542,75.1426342 43.8111579,74.3077138 Z" id="Path"></path>
                <path d="M25.0109435,101.776353 C25.6515244,99.2401531 27.1933878,98.0212192 29.7020035,98.0232295 C32.414709,98.0253879 35.1296089,97.9670369 37.8397071,98.0560131 C46.7415414,98.3483057 54.4307244,105.919769 55.0085836,114.946989 C55.1262968,116.785895 55.1075403,118.634851 55.1204761,120.479408 C55.1427561,123.657368 57.5464124,126.126472 60.6402579,126.121118 C63.6911296,126.115838 66.1061492,123.649642 66.1253844,120.518639 C66.1427781,117.686904 66.1284702,114.854557 66.1819643,112.023545 C66.3130646,105.085893 71.7897358,98.9898522 78.600352,98.1616731 C86.3581756,97.218311 93.1224677,102.162162 94.6492071,109.928354 C94.8328352,110.862443 94.8794463,111.834856 94.8928928,112.790899 C94.9263037,115.167804 94.8980526,117.545524 94.9052362,119.922891 C94.9158202,123.425946 97.545349,126.133262 100.915079,126.121266 C104.25581,126.109372 106.835929,123.424945 106.850961,119.938973 C106.862393,117.287812 106.777813,114.639458 107.402958,112.022396 C109.149927,104.709006 115.498702,98.8880922 122.870335,98.2152813 C126.228943,97.9087228 129.631509,98 133.011203,98.0658326 C135.310059,98.1106773 137.081222,100.271741 136.997125,102.623217 C136.913912,104.949904 135.056291,106.84604 132.762694,106.8766 C130.323977,106.909097 127.884266,106.86126 125.445449,106.889542 C121.377845,106.936712 118.340967,108.732227 116.504504,112.471428 C115.813913,113.877504 115.61115,115.394779 115.608734,116.957131 C115.605325,119.151405 115.71771,121.347031 115.215123,123.521407 C113.790321,129.685673 108.504453,134.384364 102.303407,134.938018 C93.4888396,135.725021 86.1907288,128.922793 86.1904189,119.919779 C86.1903458,117.61827 86.2065454,115.316613 86.1864989,113.01529 C86.160472,110.027872 84.5723258,107.815979 81.9822792,107.107902 C78.4250014,106.135387 74.9102416,108.849161 74.8908378,112.59051 C74.8760148,115.448109 74.9104696,118.306486 74.8571351,121.163261 C74.7267868,128.14459 68.9790265,134.333526 62.1165163,134.927439 C54.4053996,135.594794 47.8751803,130.619021 46.58714,122.90451 C46.2329155,120.782928 46.3892998,118.570887 46.3406693,116.399679 C46.2876401,114.032177 45.5244938,111.947612 43.9841985,110.173949 C41.9999615,107.889087 39.4540875,106.891589 36.4956864,106.885327 C34.2307881,106.880528 31.9658717,106.884706 29.7009643,106.884252 C26.6579555,106.883631 24.841156,104.9336 25.0109435,101.776353 Z" id="Path"></path>
            </g>
        </g>
    </g>
</svg>