<?xml version="1.0" encoding="UTF-8"?>
<svg width="235px" height="162px" viewBox="0 0 235 162" version="1.1" xmlns="http://www.w3.org/2000/svg" xmlns:xlink="http://www.w3.org/1999/xlink">
    <title>JEN Mark - Black</title>
    <g id="Page-1" stroke="none" stroke-width="1" fill="none" fill-rule="evenodd">
        <g id="Full-HD-Copy" transform="translate(-1233, -451)" fill="#000000" fill-rule="nonzero">
            <g id="JEN-Mark---Black" transform="translate(1233, 451)">
                <path d="M41,16.2 C41,7.25299024 48.1634827,0 57.0000325,0 C65.8365823,0 73,7.25299024 73,16.2 L73,145.8 C73,154.746878 65.8365823,162 57.0000325,162 L41,162 L41,16.2 Z" id="Path"></path>
                <path d="M0,113.25 C0,104.275508 7.16346814,97 16,97 C24.8365319,97 32,104.275508 32,113.25 L32,162 L16,162 C7.16346814,162 0,154.724492 0,145.75 L0,113.25 Z" id="Path"></path>
                <path d="M97,0 C88.1639657,0 81,7.25299024 81,16.2 L81,145.8 C81,154.746878 88.1639657,162 97,162 L113,162 L113,0 L97,0 Z" id="Path"></path>
                <path d="M162,16.2 C162,7.25299024 169.262905,0 178.222442,0 C185.018196,0 190.83814,4.17338341 193.252299,10.0938512 L202.555775,31.461322 L202.555775,16.2 C202.555775,7.25299024 209.81868,0 218.777558,0 C227.737095,0 235,7.25299024 235,16.2 L235,145.8 C235,154.746878 227.737095,162 218.777558,162 C209.81868,162 202.555775,154.746878 202.555775,145.8 L202.555775,112.72039 L194.444225,94.0903902 L194.444225,145.8 C194.444225,154.746878 187.18132,162 178.222442,162 C169.262905,162 162,154.746878 162,145.8 L162,16.2 Z" id="Path"></path>
                <path d="M122,0 L138,0 C146.836684,0 154,7.31268564 154,16.3333333 L154,32.6666667 C154,41.6873144 146.836684,49 138,49 C129.163316,49 122,41.6873144 122,32.6666667 L122,0 Z" id="Path"></path>
                <path d="M138,162 L122,162 L122,129.333333 C122,120.312818 129.163316,113 138,113 C146.836684,113 154,120.312818 154,129.333333 L154,145.666667 C154,154.687182 146.836684,162 138,162 Z" id="Path"></path>
                <path d="M122,81 C122,89.8364228 129.163316,97 138,97 C146.836684,97 154,89.8364228 154,81 C154,72.1635772 146.836684,65 138,65 C129.163316,65 122,72.1635772 122,81 Z" id="Path"></path>
            </g>
        </g>
    </g>
</svg>