<?xml version="1.0" encoding="UTF-8"?>
<svg width="409px" height="90px" viewBox="0 0 409 90" version="1.1" xmlns="http://www.w3.org/2000/svg" xmlns:xlink="http://www.w3.org/1999/xlink">
    <title>korus+portfolio-01</title>
    <g id="Page-1" stroke="none" stroke-width="1" fill="none" fill-rule="evenodd">
        <g id="Full-HD-Copy" transform="translate(-1583, -487)" fill="#000000" fill-rule="nonzero">
            <g id="korus+portfolio-01" transform="translate(1583, 487)">
                <path d="M23.7673236,59.6229639 C25.4104559,58.3315042 27.1600745,57.2775943 28.3925526,55.7990821 C30.4903572,53.2825018 32.2227901,50.4694714 34.1809009,47.8338307 C37.7248259,43.0636068 42.2690621,39.8303427 48.321322,38.9785007 C54.636631,38.0896222 60.7806452,41.0508188 63.2927921,46.8480906 C69.311275,60.7370336 75.0669564,74.7381495 81,88.8636979 C80.4111461,88.9053593 79.9614953,88.9643777 79.5117848,88.9648697 C73.6647552,88.9711473 67.8173094,88.9330481 61.9710533,89 C60.8057574,89.0129661 60.2790648,88.6341969 59.8415087,87.5889067 C54.989085,75.9963705 50.0866149,64.4244981 45.1972513,52.8472137 C44.967335,52.3028227 44.7539156,51.7503829 44.4980888,51.2181342 C42.6322034,47.3360014 38.3023928,46.3049196 35.2967601,49.4128654 C32.8107419,51.9835051 30.8848764,55.0937336 28.7797699,58.0138201 C28.5121604,58.3850716 28.6246897,59.0528326 28.6242385,59.5832706 C28.6164463,68.7179104 28.6185826,77.8525696 28.6185381,86.9872094 C28.6185332,87.5753477 28.6185332,88.1634856 28.6185332,88.860195 C22.2422081,88.860195 15.9407441,88.860195 9.46326642,88.860195 C9.46326642,88.2583994 9.46326155,87.6864377 9.46326155,87.1144759 C9.46327617,80.1828844 9.45421476,73.2512933 9.47555469,66.3197608 C9.47803827,65.511607 9.33624789,65.0127346 8.50610614,64.5603646 C-1.33706985,59.1961379 -2.9164397,46.7557152 5.23256632,39.1103131 C5.4685056,38.8889792 5.68069055,38.6150816 5.95915115,38.4702216 C9.18432015,36.7925146 9.61457919,34.0640658 9.53700189,30.7094292 C9.32338428,21.4721912 9.46321672,12.2268844 9.46322191,2.98477538 C9.46322191,2.40016997 9.46322191,1.81557392 9.46322191,1.11695572 C15.8372665,1.11695572 22.1348194,1.11695572 28.5852565,1.11695572 C28.5852565,7.29166806 28.5852565,13.4881558 28.5852565,19.9703291 C29.1864634,19.5383472 29.568119,19.292266 29.9185007,19.0081942 C36.9595668,13.2994699 43.9908275,7.57879033 51.0482466,1.89006037 C51.5587994,1.47851544 52.2528709,1.04466338 52.8645273,1.0404915 C61.0890016,0.98442498 69.3139915,1.00292359 77.9559753,1.00292359 C77.2928057,1.57702045 76.8916147,1.9429684 76.4711406,2.28563582 C57.7325162,17.5567411 38.9917454,32.8252585 20.2540478,48.0974955 C19.6273668,48.6082934 18.9896912,49.1155689 18.4259147,49.6908762 C16.3652086,51.7937368 15.8604503,54.4837709 17.0535996,56.7763015 C18.2878223,59.1477461 20.537267,60.1356906 23.7673236,59.6229639 Z" id="Path"></path>
                <path d="M234.525424,89 C231.527906,89 228.691282,89 225.703426,89 C225.665681,88.4747242 225.605059,88.017855 225.604313,87.5609264 C225.597027,83.0995281 225.387392,78.6259216 225.641586,74.1791342 C226.26892,63.2047771 214.838353,56.4534395 204.950583,60.9177127 C204.560298,61.0939469 204.182424,61.2978466 203.799229,61.4897938 C200.990687,62.896476 199.413857,64.6933145 199.625279,68.3260388 C200.020984,75.1254417 199.739101,81.9645222 199.739101,88.8934327 C193.419234,88.8934327 187.176268,88.8934327 180.795248,88.8934327 C180.795248,83.9068178 180.795248,78.934341 180.795248,73.9159646 C179.712784,73.6262911 178.724504,73.4262705 177.780016,73.0991841 C167.153663,69.4190636 164.522255,54.964233 173.194946,47.4526867 C174.985987,45.9014142 177.206804,44.8140998 179.323422,43.6907703 C180.343869,43.1492101 180.783799,42.6376 180.778909,41.4201479 C180.727202,28.5736835 180.746998,15.726934 180.747076,2.8802532 C180.747076,2.29950798 180.747076,1.71877276 180.747076,1.19707087 C180.951409,1.09234439 181.040722,1.00645258 181.130036,1.00646226 C194.263155,1.00801791 207.39649,0.974011552 220.529236,1.04806946 C224.605585,1.07104879 228.470571,2.15816646 232.025807,4.21421638 C242.757047,10.4202133 244.80886,23.631462 236.209575,32.5595551 C233.913309,34.9436173 231.074269,37.0349734 228.110332,38.499547 C214.815828,45.0687626 201.37673,51.3433036 188.021309,57.7897462 C186.756978,58.4000083 185.523263,59.3024247 184.606386,60.3582534 C182.932506,62.2858794 182.979303,65.0084286 184.419669,67.0924203 C185.806442,69.0988889 188.277781,70.0569322 190.649908,69.2293415 C191.983777,68.7639656 193.299285,68.0303792 194.395181,67.1366659 C197.220887,64.8322735 199.935225,62.3891189 202.666021,59.9695541 C208.086156,55.1671481 214.264041,52.0335106 221.58187,51.7137493 C233.600967,51.1885918 242.297185,58.2031183 243.65511,70.1662563 C244.351884,76.3047328 243.777357,82.5882725 243.777357,89 C240.869859,89 237.778098,89 234.525424,89 M215.033967,2.40539588 C209.965528,2.40539588 204.897069,2.40539588 199.845892,2.40539588 C199.845892,12.9715302 199.845892,23.3461796 199.845892,33.8503364 C200.173296,33.7315506 200.37107,33.6775678 200.553487,33.591046 C207.462415,30.3135464 214.419789,27.1324833 221.246022,23.6899637 C223.194343,22.7074151 225.0463,21.203873 226.447724,19.5242253 C230.026859,15.2344831 229.441668,9.39973946 225.315831,5.64734348 C222.488063,3.07551846 219.049516,2.31227746 215.033967,2.40539588 Z" id="Shape"></path>
                <path d="M255.003328,17.7642586 C255.003328,12.1288579 255.003328,6.65457717 255.003328,1.06099033 C261.617673,1.06099033 268.186272,1.06099033 274.982009,1.06099033 C274.982009,1.61799666 274.982029,2.23478396 274.982029,2.85158092 C274.982029,26.0495133 275.002988,49.2474853 274.967336,72.445349 C274.958354,78.2811268 276.736871,83.1682405 282.147056,86.0774067 C287.574295,88.995738 293.170217,88.9933976 298.62125,86.1322999 C303.078944,83.7925998 305.373126,79.9352414 305.766845,74.9672139 C305.838784,74.0589278 305.827442,73.1429518 305.828433,72.2304963 C305.853616,49.0334978 305.875348,25.8365192 305.897596,2.63953069 C305.898111,2.111505 305.897675,1.58348929 305.897675,1 C312.632102,1 319.21829,1 325.981508,1 C325.981508,1.61605936 325.981508,2.1863613 325.981508,2.75667324 C325.981547,23.860342 325.954144,44.9640598 326,66.0676403 C326.012163,71.6920071 323.861659,76.2950565 319.766117,80.0459524 C314.381034,84.9779287 307.796076,87.4771359 300.742486,88.8102301 C289.711593,90.895053 278.852178,90.4614729 268.49207,85.7288315 C262.135976,82.82531 257.305581,78.391464 255.587026,71.3547213 C255.184027,69.7046782 255.031683,67.9574556 255.0274,66.254289 C254.986851,50.1447375 255.003289,34.0350382 255.003328,17.7642586 Z" id="Path"></path>
                <path d="M157.97213,23.5731105 C157.972091,37.6718384 157.913455,51.6131475 157.999566,65.5535657 C158.036608,71.6541309 155.702147,76.5631762 151.180557,80.4970607 C145.806025,85.1729971 139.361929,87.5631049 132.482095,88.8567658 C121.908067,90.8451203 111.488887,90.4228555 101.479899,86.132913 C94.9742173,83.3445361 89.8349809,79.0530887 87.8454829,71.9217091 C87.3017106,69.9725559 87.0712767,67.8773481 87.0614842,65.8474365 C86.9952739,52.1229615 87.0857227,38.3976354 87.0004582,24.6733586 C86.9613516,18.2706074 89.4256889,13.1481234 94.278479,9.11343418 C99.7485787,4.56552551 106.213547,2.21725206 113.107441,1.02130724 C123.75059,-0.825071552 134.234595,-0.385977908 144.223987,4.14934869 C150.858862,7.16165738 155.851182,11.7924926 157.505757,19.2402048 C157.807709,20.5993694 157.823986,22.0219984 157.97213,23.5731105 M127.040759,2.39253879 C126.301207,2.23984223 125.567161,2.04959734 124.821262,1.94015074 C115.318353,0.545912829 107.241307,6.99224096 107.197414,16.1597687 C107.105302,35.403492 107.061063,54.6479574 107.14759,73.8914131 C107.157422,76.0782489 107.772088,78.431848 108.721667,80.4133322 C111.617208,86.4553925 119.183671,89.4309453 126.525849,87.7182074 C133.51239,86.0884255 137.82918,80.7429397 137.85534,73.467446 C137.923323,54.5477962 137.949601,35.6279289 137.953701,16.7081607 C137.955264,9.44934728 134.274754,4.59086773 127.040759,2.39253879 Z" id="Shape"></path>
                <path d="M369.884761,1.04256671 C380.455543,1.04256671 390.863667,1.04256671 401.384202,1.04256671 C401.384202,7.07892698 401.384202,13.0664621 401.384202,19.2042601 C400.981466,19.2340883 400.523359,19.2958499 400.065053,19.2978963 C388.245827,19.3506268 376.425647,19.3314629 364.608168,19.4985087 C362.160217,19.5331085 359.609585,19.9330151 357.301811,20.7243093 C351.499266,22.713858 348.492951,27.744578 349.361579,33.3832843 C350.177656,38.6807663 354.727148,42.6766471 360.672491,42.8678941 C363.168425,42.9481705 365.748888,42.4837082 368.188299,41.867822 C374.998377,40.1485079 381.824701,39.3323045 388.778094,40.7855255 C401.709083,43.4880104 410.035526,54.0734512 408.896038,66.8908345 C408.014183,76.8106886 402.223833,83.2572065 393.0234,86.8362399 C388.988339,88.4059015 384.741842,88.9662825 380.436874,88.9794653 C368.344801,89.0164948 356.252569,88.9926675 344.160377,88.9900312 C343.845943,88.9899525 343.531468,88.9573105 343.124641,88.9347426 C343.124641,83.0414635 343.124641,77.2203546 343.124641,71.2435919 C343.763838,71.2435919 344.345757,71.2435919 344.927676,71.2435919 C354.688181,71.2435723 364.448687,71.2488649 374.209192,71.24066 C377.539912,71.2378661 380.805489,70.8624753 383.882151,69.4705041 C389.951385,66.7245756 393.450881,60.7217229 392.502731,54.6660413 C391.458733,47.9984283 386.51159,43.2649875 379.734679,42.3589451 C376.064897,41.8683139 372.491558,42.2648957 368.968428,43.2775404 C363.90208,44.7337129 358.761453,45.5182977 353.577928,44.1636906 C345.037188,41.931748 340.254015,36.1387754 338.506987,27.7599251 C336.042551,15.9405872 342.769175,4.8319032 354.197264,1.97403015 C356.740547,1.33801575 359.439022,1.22620917 362.077874,1.07435289 C364.617979,0.928182491 367.173337,1.0426257 369.884761,1.04256671 Z" id="Path"></path>
            </g>
        </g>
    </g>
</svg>