<?xml version="1.0" encoding="UTF-8"?>
<svg width="479px" height="162px" viewBox="0 0 479 162" version="1.1" xmlns="http://www.w3.org/2000/svg" xmlns:xlink="http://www.w3.org/1999/xlink">
    <title>lco-text-white</title>
    <g id="Page-1" stroke="none" stroke-width="1" fill="none" fill-rule="evenodd">
        <g id="Full-HD-Copy" transform="translate(-3649, -451)" fill="#000000" fill-rule="nonzero">
            <g id="lco-text-white" transform="translate(3649, 451)">
                <g id="Group" transform="translate(90, 0)">
                    <path d="M264.070046,46.3567722 L288.350128,46.3567722 C288.350128,57.5487805 280.090628,68.0121951 266.58248,68.7610275 C250.093996,69.6717696 241.559857,56.4660093 241.559857,38.9898806 C241.559857,21.5137519 250.85688,9.58303062 266.765572,9.58303062 C275.065759,9.58303062 280.843341,12.0015568 285.349447,19.4696419 C286.61075,21.5643487 286.854873,23.9525169 287.129512,25.4400623 L298.562613,25.4400623 L298.562613,16.8689673 L296.080694,16.8689673 L296.080694,12.6491956 L292.093349,12.6491956 L292.093349,8.42942398 L288.116176,8.42942398 L288.116176,4.20965231 L280.141487,4.20965231 L280.141487,0 L253.389658,0 L253.389658,4.21977167 L245.42514,4.21977167 L245.42514,8.43954333 L241.447967,8.43954333 L241.447967,12.659315 L237.460623,12.659315 L237.460623,16.8790867 L233.48345,16.8790867 L233.48345,25.31863 L229.496105,25.31863 L229.496105,52.6712506 L233.48345,52.6712506 L233.48345,61.1209133 L237.460623,61.1209133 L237.460623,65.340685 L241.447967,65.340685 L241.447967,69.5604567 L245.42514,69.5604567 L245.42514,73.7802283 L253.389658,73.7802283 L253.389658,78 L280.141487,78 L280.141487,73.7802283 L288.116176,73.7802283 L288.116176,69.5604567 L291.177887,69.5604567 L291.228746,76.9880643 L299,76.9880643 L299,36.1463415 L264.070046,36.1463415 L264.070046,46.3668915 L264.070046,46.3567722 Z" id="Path"></path>
                    <polygon id="Path" points="50.085933 67.1722885 50.085933 76.8160353 0 76.8160353 0 0.951219512 10.619357 0.951219512 10.619357 67.1722885"></polygon>
                    <rect id="Rectangle" x="57.5825481" y="0.951219512" width="10.619357" height="75.8749351"></rect>
                    <path d="M139.170539,1.17384536 L139.170539,16.433835 L135.111992,16.433835 L135.111992,28.4455112 L131.053444,28.4455112 L131.053444,36.530877 L126.994897,36.530877 L126.994897,48.5425532 L122.93635,48.5425532 L122.93635,56.6177997 L118.877802,56.6177997 L118.877802,68.7407888 L114.819255,68.7407888 L114.819255,76.8160353 L100.110835,76.8160353 L100.110835,68.7407888 L96.0522878,68.7407888 L96.0522878,56.6177997 L91.9937404,56.6177997 L91.9937404,48.5425532 L87.9351931,48.5425532 L87.9351931,36.530877 L83.8766457,36.530877 L83.8766457,28.4455112 L79.8180983,28.4455112 L79.8180983,16.433835 L75.7595509,16.433835 L75.7595509,1.17384536 L83.9580201,1.17384536 L106.407178,62.1834458 C107.027658,63.8430202 107.444701,63.8430202 107.841402,63.8430202 C108.238102,63.8430202 108.563599,63.8430202 109.173907,62.1834458 L131.277224,1.17384536 L139.170539,1.17384536 Z" id="Path"></path>
                    <rect id="Rectangle" x="146.595952" y="0.951219512" width="10.619357" height="75.8749351"></rect>
                    <path d="M224.267801,0.941100156 L224.267801,76.836274 L208.440483,76.836274 L208.440483,72.7885314 L204.107297,72.7885314 L204.107297,64.6829268 L199.763939,64.6829268 L199.763939,56.5773223 L195.420582,56.5773223 L195.420582,48.4717177 L191.077224,48.4717177 L191.077224,40.3661131 L186.744038,40.3661131 L186.744038,32.2605086 L182.40068,32.2605086 L182.40068,24.154904 L178.057323,24.154904 L178.057323,16.0492994 L175.514373,16.0492994 L175.514373,76.836274 L164.905188,76.836274 L164.905188,0.941100156 L178.199728,0.941100156 L212.163361,63.438246 C213.11951,65.1180592 213.292431,65.1787753 213.567069,65.1686559 C213.597585,65.0775817 213.648444,64.8751946 213.648444,64.5614946 L213.648444,0.941100156 L224.257629,0.941100156 L224.267801,0.941100156 Z" id="Path"></path>
                </g>
                <g id="Group" transform="translate(0, 84)">
                    <path d="M68.9698242,47.869889 L58.3551753,47.869889 C57.6644613,58.4872632 49.6196747,68.0755062 36.8109931,68.7887655 C20.4471659,69.6956238 11.9757618,56.4901372 11.9757618,39.0050947 C11.9757618,21.5200523 21.1988252,9.57805356 36.9836716,9.57805356 C45.2214517,9.57805356 50.9503149,12.0031352 55.4196408,19.4719791 C56.6690205,21.5608099 57.5730432,24.6991509 57.9285578,26.940823 L68.5228916,26.940823 L68.5228916,16.8736773 L66.0647624,16.8736773 L66.0647624,12.655258 L62.113472,12.655258 L62.113472,8.43683867 L58.1621816,8.43683867 L58.1621816,4.21841933 L50.2494433,4.21841933 L50.2494433,0 L23.7077422,0 L23.7077422,4.21841933 L15.8051615,4.21841933 L15.8051615,8.43683867 L11.8538711,8.43683867 L11.8538711,12.655258 L7.90258074,12.655258 L7.90258074,16.8736773 L3.95129037,16.8736773 L3.95129037,25.3207054 L0,25.3207054 L0,52.6792946 L3.95129037,52.6792946 L3.95129037,61.1263227 L7.90258074,61.1263227 L7.90258074,65.344742 L11.8538711,65.344742 L11.8538711,69.5631613 L15.8051615,69.5631613 L15.8051615,73.7815807 L23.7077422,73.7815807 L23.7077422,78 L50.2494433,78 L50.2494433,73.7815807 L58.1621816,73.7815807 L58.1621816,70.5515349 L62.4486715,70.5515349 L62.4486715,66.4350098 C62.5197744,66.343305 62.5807197,66.2617897 62.6518226,66.1700849 L66.8265793,66.1700849 L66.8265793,59.5469628 L68.9596666,59.5469628 L68.9596666,48.1348138 L68.9088789,48.236708 C68.9088789,48.0329197 68.9088789,47.9310255 68.9088789,47.9310255 L68.9596666,48.0023514 L68.9596666,47.8596995 L68.9698242,47.869889 Z" id="Path"></path>
                    <polygon id="Path" points="345.89535 67.3520575 345.89535 77.0727629 292.100918 77.0727629 292.100918 0.672501633 344.767861 0.672501633 344.767861 10.3932071 302.70541 10.3932071 302.70541 32.4227302 340.27822 32.4227302 340.27822 42.1434357 302.70541 42.1434357 302.70541 67.3520575"></polygon>
                    <path d="M217.666327,0.77439582 L217.666327,77.1950359 L201.861166,77.1950359 L201.861166,73.1192685 L197.534046,73.1192685 L197.534046,64.9575441 L193.196768,64.9575441 L193.196768,56.7958197 L188.859491,56.7958197 L188.859491,48.6340954 L184.522213,48.6340954 L184.522213,40.472371 L180.195093,40.472371 L180.195093,32.3106466 L175.857815,32.3106466 L175.857815,24.1489223 L171.520538,24.1489223 L171.520538,15.9871979 L168.981148,15.9871979 L168.981148,77.1950359 L158.386814,77.1950359 L158.386814,0.77439582 L171.662744,0.77439582 L205.578832,63.7042456 C206.533643,65.3956891 206.706321,65.4568256 206.980576,65.4466362 C207.011048,65.3549314 207.061836,65.151143 207.061836,64.8352711 L207.061836,0.77439582 L217.65617,0.77439582 L217.666327,0.77439582 Z" id="Path"></path>
                    <path d="M411.269398,0.77439582 L411.269398,77.1950359 L395.464236,77.1950359 L395.464236,73.1192685 L391.137116,73.1192685 L391.137116,64.9575441 L386.799839,64.9575441 L386.799839,56.7958197 L382.462561,56.7958197 L382.462561,48.6340954 L378.125284,48.6340954 L378.125284,40.472371 L373.798164,40.472371 L373.798164,32.3106466 L369.460886,32.3106466 L369.460886,24.1489223 L365.123608,24.1489223 L365.123608,15.9871979 L362.584219,15.9871979 L362.584219,77.1950359 L351.989885,77.1950359 L351.989885,0.77439582 L365.265814,0.77439582 L399.181903,63.7042456 C400.136714,65.3956891 400.309392,65.4568256 400.583646,65.4466362 C400.614119,65.3549314 400.664907,65.151143 400.664907,64.8352711 L400.664907,0.77439582 L411.25924,0.77439582 L411.269398,0.77439582 Z" id="Path"></path>
                    <polygon id="Path" points="479 0.672501633 479 10.3932071 454.083508 10.3932071 454.083508 77.0727629 443.580592 77.0727629 443.580592 10.3932071 418.765676 10.3932071 418.765676 0.672501633"></polygon>
                    <polygon id="Path" points="284.980469 0.672501633 284.980469 10.3932071 260.074135 10.3932071 260.074135 77.0727629 249.561062 77.0727629 249.561062 10.3932071 224.756303 10.3932071 224.756303 0.672501633"></polygon>
                    <g transform="translate(74.0283, 0.0204)">
                        <path d="M74.8612083,24.9844546 L74.8612083,16.6596995 L70.7067668,16.6596995 L70.7067668,12.5024167 L66.5523252,12.5024167 L66.5523252,8.33494448 L62.3978837,8.33494448 L62.3978837,4.16747224 L54.0991581,4.16747224 L54.0991581,0 L24.9063342,0 L24.9063342,4.16747224 L16.6076086,4.16747224 L16.6076086,8.33494448 L12.4531671,8.33494448 L12.4531671,12.5024167 L8.29872553,12.5024167 L8.29872553,16.6596995 L4.14428399,16.6596995 L4.14428399,24.9844546 L0,24.9844546 L0,52.9849771 L4.14428399,52.9849771 L4.14428399,61.3097322 L8.29872553,61.3097322 L8.29872553,65.4772044 L12.4531671,65.4772044 L12.4531671,69.6446767 L16.6076086,69.6446767 L16.6076086,73.8121489 L24.9063342,73.8121489 L24.9063342,77.9694317 L54.0991581,77.9694317 L54.0991581,73.8121489 L62.3978837,73.8121489 L62.3978837,69.6446767 L66.5523252,69.6446767 L66.5523252,65.4772044 L70.7067668,65.4772044 L70.7067668,61.3097322 L74.8612083,61.3097322 L74.8612083,52.9849771 L79.0054923,52.9849771 L79.0054923,24.9844546 L74.8612083,24.9844546 Z M67.9032805,38.9847159 C67.9032805,55.9195297 55.9579914,68.2079686 39.5027461,68.2079686 C23.0475009,68.2079686 11.1123693,55.9195297 11.1123693,38.9847159 C11.1123693,22.049902 23.0576585,9.75127368 39.5027461,9.75127368 C55.9478338,9.75127368 67.9032805,22.049902 67.9032805,38.9847159 Z" id="Shape"></path>
                        <polygon id="Path" points="53.6014378 35.897322 53.6014378 42.1230568 42.6414318 42.1230568 42.6414318 53.1174396 36.4351634 53.1174396 36.4351634 42.1230568 25.4243697 42.1230568 25.4243697 35.897322 36.4351634 35.897322 36.4351634 24.8519922 42.6414318 24.8519922 42.6414318 35.897322"></polygon>
                    </g>
                </g>
            </g>
        </g>
    </g>
</svg>