<?xml version="1.0" encoding="UTF-8"?>
<svg width="401px" height="162px" viewBox="0 0 401 162" version="1.1" xmlns="http://www.w3.org/2000/svg" xmlns:xlink="http://www.w3.org/1999/xlink">
    <title>Group</title>
    <g id="Page-1" stroke="none" stroke-width="1" fill="none" fill-rule="evenodd">
        <g id="Full-HD-Copy" transform="translate(-3161, -451)" fill="#000000">
            <g id="Group" transform="translate(3161, 451)">
                <circle id="Oval" cx="79.5" cy="39.5" r="39.5"></circle>
                <circle id="Oval" cx="79.5" cy="118.5" r="39.5"></circle>
                <path d="M0,158 C26.6666667,153.352941 40,140.186275 40,118.5 C40,96.8137255 26.6666667,83.6470588 0,79 L0,158 Z" id="Oval"></path>
                <path d="M119,158 C145.666667,153.352941 159,140.186275 159,118.5 C159,96.8137255 145.666667,83.6470588 119,79 L119,158 Z" id="Oval" transform="translate(139, 118.5) scale(-1, 1) translate(-139, -118.5)"></path>
                <path d="M0,79 C26.6666667,74.3529412 40,61.1862745 40,39.5 C40,17.8137255 26.6666667,4.64705882 0,0 L0,79 Z" id="Oval"></path>
                <path d="M119,79 C145.666667,74.3529412 159,61.1862745 159,39.5 C159,17.8137255 145.666667,4.64705882 119,0 L119,79 Z" id="Oval" transform="translate(139, 39.5) scale(-1, 1) translate(-139, -39.5)"></path>
                <g id="THE-ROSTR-GROUP" transform="translate(182, 0)" fill-rule="nonzero">
                    <path d="M16.8763079,39.6258993 C19.2495387,39.6258993 20.6558977,38.295989 20.6558977,35.9890017 L20.6558977,5.91674387 L30.3246157,5.91674387 C32.3755559,5.91674387 33.7819149,4.77682074 33.7819149,2.95837193 C33.7819149,1.13992313 32.404855,0 30.3246157,0 L3.45729918,0 C1.37705984,0 0,1.13992313 0,2.95837193 C0,4.77682074 1.40635899,5.91674387 3.45729918,5.91674387 L13.1260172,5.91674387 L13.1260172,35.9890017 C13.1260172,38.295989 14.5323762,39.6258993 16.8763079,39.6258993 Z" id="Path"></path>
                    <path d="M46.8053681,40.7913669 C49.1313266,40.7913669 50.5096724,39.4380988 50.5096724,37.0905929 L50.5096724,23.0331754 L70.6679793,23.0331754 L70.6679793,37.0905929 C70.6679793,39.4380988 72.0463251,40.7913669 74.3435681,40.7913669 C76.6695266,40.7913669 78.0478723,39.4380988 78.0478723,37.0905929 L78.0478723,3.70077398 C78.0478723,1.3532681 76.6695266,0 74.3435681,0 C72.0463251,0 70.6679793,1.3532681 70.6679793,3.70077398 L70.6679793,17.0401309 L50.5096724,17.0401309 L50.5096724,3.70077398 C50.5096724,1.3532681 49.1313266,0 46.8053681,0 C44.5081251,0 43.1010638,1.3532681 43.1010638,3.70077398 L43.1010638,37.0905929 C43.1010638,39.4380988 44.5081251,40.7913669 46.8053681,40.7913669 Z" id="Path"></path>
                    <path d="M94.6580291,39.6258993 L115.34654,39.6258993 C117.435991,39.6258993 118.819149,38.4725467 118.819149,36.6326747 C118.819149,34.7928028 117.435991,33.6394502 115.34654,33.6394502 L98.4543561,33.6394502 L98.4543561,22.3256106 L114.463673,22.3256106 C116.435409,22.3256106 117.73028,21.2271796 117.73028,19.4971507 C117.73028,17.7671219 116.40598,16.6961516 114.463673,16.6961516 L98.4543561,16.6961516 L98.4543561,5.98644909 L115.34654,5.98644909 C117.435991,5.98644909 118.819149,4.83309652 118.819149,2.99322455 C118.819149,1.15335258 117.435991,0 115.34654,0 L94.6580291,0 C92.3037178,0 90.8617021,1.37303878 90.8617021,3.67974394 L90.8617021,35.9461553 C90.8617021,38.2528605 92.3037178,39.6258993 94.6580291,39.6258993 Z" id="Path"></path>
                    <path d="M6.11460483,100.230216 C8.46177854,100.230216 9.89942244,98.8759472 9.89942244,96.600776 L9.89942244,84.9811514 L18.3785874,84.9811514 L25.918883,97.7112762 C27.0924698,99.6343376 27.97266,100.230216 29.7623799,100.230216 C31.9335156,100.230216 33.5765372,98.8759472 33.5765372,97.0341419 C33.5765372,96.2215808 33.4004992,95.6257026 32.7550264,94.6235438 L26.0655813,83.789395 C30.9653064,82.0288458 33.7819149,77.8576985 33.7819149,72.7656486 C33.7819149,65.2900859 28.2953964,60.6043165 19.1414189,60.6043165 L6.11460483,60.6043165 C3.76743113,60.6043165 2.32978723,61.9585851 2.32978723,64.2337564 L2.32978723,96.600776 C2.32978723,98.8759472 3.76743113,100.230216 6.11460483,100.230216 Z M9.89942244,79.6182477 L9.89942244,66.2651593 L18.2905684,66.2651593 C23.0729349,66.2651593 26.0362417,68.8111843 26.0362417,72.9281608 C26.0362417,77.1534789 23.2489729,79.6182477 18.4372668,79.6182477 L9.89942244,79.6182477 Z" id="Shape"></path>
                    <path d="M64.0836144,101.395683 C76.2345865,101.395683 83.8723404,93.5711825 83.8723404,81.0136792 C83.8723404,68.4561759 76.2345865,60.6043165 64.0836144,60.6043165 C51.9037114,60.6043165 44.2659574,68.4561759 44.2659574,81.0136792 C44.2659574,93.5711825 51.9037114,101.395683 64.0836144,101.395683 Z M64.0836144,95.3768366 C56.6194458,95.3768366 51.9037114,89.795724 51.9037114,81.0136792 C51.9037114,72.204276 56.6194458,66.6231634 64.0836144,66.6231634 C71.5188521,66.6231634 76.2635174,72.204276 76.2635174,81.0136792 C76.2635174,89.795724 71.5188521,95.3768366 64.0836144,95.3768366 Z" id="Shape"></path>
                    <path d="M109.295046,101.395683 C119.454926,101.395683 125.808511,96.6353227 125.808511,89.0844057 C125.808511,83.2297092 122.060774,79.891985 113.159899,78.1684061 L108.621624,77.2929375 C103.351369,76.2533185 101.243268,74.5297396 101.243268,71.8486169 C101.243268,68.5382511 104.581096,66.4590131 109.265766,66.4590131 C113.218458,66.4590131 116.234214,67.8816496 117.668895,71.2193738 C118.459433,72.7514439 119.542763,73.4627622 121.299515,73.4627622 C123.261221,73.4627622 124.578785,72.2863512 124.578785,70.5627723 C124.578785,69.9061708 124.490947,69.3863613 124.315272,68.948627 C122.587799,63.7231736 116.790519,60.6043165 109.324325,60.6043165 C100.159937,60.6043165 93.6306773,65.3099605 93.6306773,72.2589928 C93.6306773,78.0316141 97.5833683,81.7523559 106.045055,83.3665012 L110.58333,84.2419698 C116.087818,85.3089472 118.19592,87.0598845 118.19592,89.9051576 C118.19592,93.188165 114.623859,95.5409869 109.529279,95.5409869 C105.020283,95.5409869 101.389663,94.0089168 100.0721,90.5891174 C99.2522824,89.0023305 98.1982314,88.3730874 96.5293174,88.3730874 C94.5383323,88.3730874 93.1914894,89.6315736 93.1914894,91.6013781 C93.1914894,92.2579795 93.3378853,92.9692978 93.6013981,93.6258993 C95.2410329,98.1126761 100.862638,101.395683 109.295046,101.395683 Z" id="Path"></path>
                    <path d="M149.67418,100.230216 C152.047411,100.230216 153.45377,98.9003055 153.45377,96.5933182 L153.45377,66.5210604 L163.122488,66.5210604 C165.173428,66.5210604 166.579787,65.3811373 166.579787,63.5626885 C166.579787,61.7442397 165.202727,60.6043165 163.122488,60.6043165 L136.255172,60.6043165 C134.174932,60.6043165 132.797872,61.7442397 132.797872,63.5626885 C132.797872,65.3811373 134.204231,66.5210604 136.255172,66.5210604 L145.92389,66.5210604 L145.92389,96.5933182 C145.92389,98.9003055 147.330249,100.230216 149.67418,100.230216 Z" id="Path"></path>
                    <path d="M179.683754,100.230216 C182.030927,100.230216 183.468571,98.8759472 183.468571,96.600776 L183.468571,84.9811514 L191.947736,84.9811514 L199.488032,97.7112762 C200.661619,99.6343376 201.541809,100.230216 203.331529,100.230216 C205.502665,100.230216 207.145686,98.8759472 207.145686,97.0341419 C207.145686,96.2215808 206.969648,95.6257026 206.324175,94.6235438 L199.63473,83.789395 C204.534455,82.0288458 207.351064,77.8576985 207.351064,72.7656486 C207.351064,65.2900859 201.864545,60.6043165 192.710568,60.6043165 L179.683754,60.6043165 C177.33658,60.6043165 175.898936,61.9585851 175.898936,64.2337564 L175.898936,96.600776 C175.898936,98.8759472 177.33658,100.230216 179.683754,100.230216 Z M183.468571,79.6182477 L183.468571,66.2651593 L191.859717,66.2651593 C196.642084,66.2651593 199.605391,68.8111843 199.605391,72.9281608 C199.605391,77.1534789 196.818122,79.6182477 192.006416,79.6182477 L183.468571,79.6182477 Z" id="Shape"></path>
                    <path d="M21.176736,162 C32.8674024,162 39.606383,155.406627 39.606383,145.147229 L39.606383,144.326477 C39.606383,142.028372 38.199987,140.660452 35.8559938,140.660452 L24.7220258,140.660452 C22.8468312,140.660452 21.5576349,141.672713 21.5576349,143.341575 C21.5576349,145.010437 22.8468312,146.050056 24.7220258,146.050056 L32.2228042,146.050056 L32.1935043,146.706657 C32.0763047,152.233053 27.6520174,156.008512 21.2646358,156.008512 C13.6466577,156.008512 8.90007135,150.454757 8.90007135,141.37177 C8.90007135,132.480292 13.4415583,127.200122 21.0595364,127.200122 C25.6596231,127.200122 29.0877133,129.169926 31.1973072,133.082177 C32.1349045,134.668963 33.2776012,135.352923 34.9183965,135.352923 C36.9400907,135.352923 38.2585869,134.121796 38.2585869,132.261425 C38.2585869,131.550106 38.1413872,130.838788 37.7018885,129.908603 C35.3578952,124.819941 28.9998135,121.208633 21.0302364,121.208633 C8.81217161,121.208633 1.16489362,128.9237 1.16489362,141.453845 C1.16489362,154.175499 8.84147152,162 21.176736,162 Z" id="Path"></path>
                    <path d="M53.8752431,160.834532 C56.2224168,160.834532 57.6600607,159.480264 57.6600607,157.205093 L57.6600607,145.585468 L66.1392257,145.585468 L73.6795213,158.315593 C74.8531081,160.238654 75.7332983,160.834532 77.5230182,160.834532 C79.6941539,160.834532 81.3371755,159.480264 81.3371755,157.638458 C81.3371755,156.825897 81.1611375,156.230019 80.5156647,155.22786 L73.8262196,144.393712 C78.7259447,142.633162 81.5425532,138.462015 81.5425532,133.369965 C81.5425532,125.894402 76.0560347,121.208633 66.9020572,121.208633 L53.8752431,121.208633 C51.5280694,121.208633 50.0904255,122.562902 50.0904255,124.838073 L50.0904255,157.205093 C50.0904255,159.480264 51.5280694,160.834532 53.8752431,160.834532 Z M57.6600607,140.222564 L57.6600607,126.869476 L66.0512067,126.869476 C70.8335732,126.869476 73.79688,129.415501 73.79688,133.532477 C73.79688,137.757795 71.0096112,140.222564 66.1979051,140.222564 L57.6600607,140.222564 Z" id="Shape"></path>
                    <path d="M111.844253,162 C123.995225,162 131.632979,154.175499 131.632979,141.617996 C131.632979,129.060492 123.995225,121.208633 111.844253,121.208633 C99.6643497,121.208633 92.0265957,129.060492 92.0265957,141.617996 C92.0265957,154.175499 99.6643497,162 111.844253,162 Z M111.844253,155.981153 C104.380084,155.981153 99.6643497,150.400041 99.6643497,141.617996 C99.6643497,132.808593 104.380084,127.22748 111.844253,127.22748 C119.27949,127.22748 124.024156,132.808593 124.024156,141.617996 C124.024156,150.400041 119.27949,155.981153 111.844253,155.981153 Z" id="Shape"></path>
                    <path d="M159.007979,162 C169.433089,162 175.898936,156.007737 175.898936,147.349192 L175.898936,124.891951 C175.898936,122.555518 174.531709,121.208633 172.252996,121.208633 C169.945799,121.208633 168.578572,122.555518 168.578572,124.891951 L168.578572,146.716981 C168.578572,152.132008 165.103535,155.815325 159.007979,155.815325 C152.912422,155.815325 149.46587,152.132008 149.46587,146.716981 L149.46587,124.891951 C149.46587,122.555518 148.098642,121.208633 145.791445,121.208633 C143.512733,121.208633 142.117021,122.555518 142.117021,124.891951 L142.117021,147.349192 C142.117021,156.007737 148.611352,162 159.007979,162 Z" id="Path"></path>
                    <path d="M192.444431,160.834532 C194.787569,160.834532 196.176096,159.504622 196.176096,157.197635 L196.176096,147.426865 L204.622965,147.426865 C213.069835,147.426865 219,142.134365 219,134.317749 C219,126.501133 213.243401,121.208633 204.941169,121.208633 L192.444431,121.208633 C190.13022,121.208633 188.712766,122.565684 188.712766,124.845531 L188.712766,157.197635 C188.712766,159.504622 190.13022,160.834532 192.444431,160.834532 Z M196.176096,141.781531 L196.176096,126.93539 L202.97409,126.93539 C208.325703,126.93539 211.42096,129.622351 211.42096,134.317749 C211.42096,139.067429 208.296775,141.781531 202.945162,141.781531 L196.176096,141.781531 Z" id="Shape"></path>
                </g>
            </g>
        </g>
    </g>
</svg>