<?xml version="1.0" encoding="UTF-8"?>
<svg width="175px" height="163px" viewBox="0 0 175 163" version="1.1" xmlns="http://www.w3.org/2000/svg" xmlns:xlink="http://www.w3.org/1999/xlink">
    <title>IMG_6517</title>
    <g id="Page-1" stroke="none" stroke-width="1" fill="none" fill-rule="evenodd">
        <g id="Full-HD-Copy" transform="translate(-4178, -451)" fill="#000000" fill-rule="nonzero">
            <g id="IMG_6517" transform="translate(4178, 451)">
                <path d="M137.882548,0.174502672 C149.663645,0.174465247 161.241585,0.172057023 172.819539,0.176315349 C175.243824,0.177202975 175.484726,0.567101344 174.335102,2.5564196 C155.561007,35.0433271 136.787619,67.5306442 118.011503,100.016372 C116.486615,102.654665 116.223469,102.666285 114.688364,100.020742 C110.483223,92.7736832 106.303775,85.5116774 101.944531,77.9618193 C100.112143,81.0987482 98.3941183,84.0175315 96.6978541,86.9489278 C94.090487,91.4548283 91.5024505,95.9719514 88.8973396,100.47918 C87.737015,102.486698 87.2675507,102.479573 86.0890354,100.444346 C82.0904117,93.5389802 78.0983966,86.6297788 74.1002812,79.7241031 C73.7978281,79.2017309 73.4672029,78.6956955 73.0327429,77.9928923 C69.9166539,83.3982897 66.8882428,88.6574203 63.8536195,93.9129635 C62.5687649,96.1381307 61.285646,98.364539 59.9744542,100.574138 C58.8391393,102.487331 58.4240104,102.481956 57.283426,100.511569 C50.4779299,88.7549978 43.6829735,76.9922806 36.8865418,65.2304449 C24.8785117,44.4494462 12.8718708,23.6676473 0.86491381,2.88602776 C-0.53434996,0.464185976 -0.382013574,0.185626063 2.40832067,0.184831593 C20.6892985,0.179623402 38.9703328,0.198071537 57.2511619,0.144385228 C58.6674661,0.140226567 59.4076276,0.606678389 60.0931438,1.81137044 C64.3041001,9.2114427 68.5971294,16.5646945 73.0622294,24.2779693 C77.838276,16.0516822 82.4766245,8.06255351 87.1149851,0.0734308969 C87.3523396,0.0489495921 87.5897067,0.0244747961 87.8270612,0 C92.4800909,8.01126973 97.1331077,16.0225395 101.930309,24.2820413 C104.425868,19.9739952 106.79221,15.8918347 109.155713,11.8080357 C111.119736,8.41448289 113.127789,5.04507577 115.015244,1.60930134 C115.622506,0.5038875 116.339852,0.147190891 117.570967,0.15711017 C124.273391,0.21113127 130.976509,0.177786318 137.882548,0.174502672 M30.7976355,51.0333413 C40.0206971,66.988806 49.2437526,82.9442707 58.4691452,98.9037826 C58.7251243,98.7614887 58.8868286,98.7280815 58.9422306,98.6327517 C63.1536577,91.3847368 67.3761207,84.1428796 71.5153071,76.8536365 C71.7810202,76.3857137 71.5960914,75.4341508 71.2882446,74.8995006 C57.5544581,51.0474562 43.7920039,27.2118984 29.9692748,3.41145422 C29.6021079,2.77925801 28.5362253,2.20488156 27.7894546,2.19639013 C20.0031188,2.10786308 12.2154072,2.13920945 4.42807352,2.14395797 C3.92584297,2.14426835 3.42363722,2.19924542 2.62715623,2.24610368 C12.0683777,18.602137 21.3547835,34.689958 30.7976355,51.0333413 M131.854108,26.1209717 C122.515439,42.2784681 113.187246,58.4420603 103.813969,74.5794082 C103.202702,75.6317878 103.114577,76.4013061 103.756409,77.487987 C107.332452,83.5426936 110.822193,89.6484859 114.346653,95.7337691 C114.968609,96.8076385 115.61524,97.8671936 116.387727,99.1637272 C135.138833,66.7072972 153.711843,34.5591349 172.437207,2.14727253 C163.596533,2.14727253 155.204901,2.12163674 146.814236,2.20048085 C146.204481,2.20620974 145.366759,2.83228613 145.031496,3.40327928 C140.64971,10.8663176 136.339457,18.3714714 131.854108,26.1209717 M56.0803345,44.8501206 C56.8880748,46.2226674 57.6958021,47.5952143 58.464731,48.9018284 C58.6948072,48.8869063 58.8033789,48.9070549 58.8221765,48.8747899 C63.0739152,41.5744361 67.3385868,34.2813756 71.5197339,26.9406441 C71.7848022,26.4752658 71.5922969,25.5279303 71.2866449,24.9907597 C67.1745267,17.7638184 63.0324258,10.5533384 58.7999565,3.39675551 C58.427718,2.76735276 57.3735718,2.19480729 56.629653,2.18659533 C48.7797504,2.09998022 40.9285151,2.13217679 33.0776515,2.13727921 C32.6423732,2.13756478 32.2071131,2.18787998 31.4651101,2.23395598 C39.7232721,16.5351979 47.8244048,30.5644963 56.0803345,44.8501206 M107.901895,17.594207 C106.495771,20.0579409 105.024723,22.4882558 103.730122,25.0093876 C103.4146,25.6238313 103.406031,26.6785016 103.722831,27.2875142 C105.125309,29.9836828 106.688041,32.5968677 108.210969,35.2295243 C110.866014,39.8192407 113.53445,44.4011914 116.362916,49.2716156 C125.493246,33.4640931 134.452313,17.9530759 143.476514,2.32929846 C142.981296,2.22461435 142.794631,2.15084785 142.60788,2.15061841 C134.420173,2.14063079 126.232144,2.10616878 118.045366,2.19135604 C117.38698,2.1982089 116.493658,2.88736245 116.122275,3.50731211 C113.379677,8.08550771 110.741918,12.7266629 107.901895,17.594207 M90.741916,54.8929737 C94.4199338,61.2597657 98.0979517,67.6265452 101.804514,74.0427343 C102.038818,73.8264758 102.220523,73.7226044 102.311127,73.5659348 C106.467785,66.3798927 110.639509,59.2022549 114.717776,51.971794 C115.010842,51.4522274 114.832275,50.4208526 114.504105,49.8343224 C112.065311,45.4753337 109.531176,41.1698512 107.031041,36.8452009 C105.364052,33.9616741 103.703773,31.0742372 101.921282,27.9817331 C98.0556687,34.6932726 94.500693,41.2199679 90.5735782,47.513925 C88.9421275,50.1286305 88.4064858,52.259783 90.741916,54.8929737 M99.6362686,28.328231 C100.958595,26.8218881 100.583219,25.4766278 99.6079722,23.8474013 C95.7554788,17.4115107 92.0623706,10.880023 88.3016592,4.38893198 C88.0842307,4.01367618 87.7916604,3.68205683 87.4237495,3.17939825 C83.047977,10.7392627 78.7692689,18.0860526 74.5784499,25.4827606 C74.3228678,25.933856 74.5949043,26.8763807 74.9070663,27.4283367 C77.9344478,32.7810846 81.0176904,38.102238 84.0967294,43.4256073 C85.1882113,45.3126806 86.3119073,47.1810828 87.5202187,49.2261047 C91.6188213,42.1525863 95.5472509,35.3727737 99.6362686,28.328231 M74.3253354,76.3736717 C78.6602259,83.8954114 82.9951295,91.417151 87.3423951,98.9603547 C87.6348041,98.7573919 87.7778348,98.7094231 87.8346625,98.6113616 C92.0014509,91.4221912 96.1833668,84.2414996 100.275856,77.0100949 C100.569592,76.4910621 100.427294,75.4776135 100.111399,74.9005807 C98.2949702,71.5825631 96.3652575,68.3266793 94.4734387,65.0500515 C92.1958033,61.1051443 89.9176473,57.160548 87.4784197,52.9365159 C82.9361438,60.8585699 78.576801,68.4615618 74.3253354,76.3736717 M60.3870038,52.2935998 C64.5715115,59.53326 68.7560066,66.7729323 73.0793782,74.2528352 C77.4808427,66.623227 81.7538344,59.261509 85.9410701,51.851201 C86.2060884,51.3821607 85.9906191,50.4290711 85.6815322,49.8802059 C83.1602684,45.4030699 80.5638371,40.9683471 77.9895397,36.5211605 C76.3840666,33.7476562 74.777316,30.974891 73.0555086,28.0021607 C68.6958557,35.560411 64.4611172,42.8693804 60.2887858,50.2138922 C60.0281321,50.672728 60.2565221,51.410031 60.3870038,52.2935998 Z" id="Shape"></path>
                <path d="M41.2789943,155.87515 C40.7247625,157.363569 40.3516378,158.764046 39.720848,160.03514 C39.3438467,160.794837 38.563196,161.351858 37.9640014,162 C37.3532563,161.365229 36.4626975,160.836805 36.1776066,160.078184 C34.4543525,155.49261 32.8709838,150.853888 31.2379908,146.233946 C29.8548037,142.320741 28.4677706,138.408926 26.8856088,133.940603 C26.06475,136.216099 25.3942064,138.017571 24.7636781,139.833078 C22.4415157,146.51938 20.1673778,153.222961 17.773835,159.883196 C17.4811832,160.697505 16.5748297,161.288656 15.9528832,161.983223 C15.321334,161.283022 14.408347,160.689267 14.1008398,159.866519 C10.0724753,149.088237 6.12977873,138.277577 2.1639758,127.475631 C2.11709947,127.347926 1.98161421,127.215112 2.00209163,127.106575 C2.13523097,126.401003 2.3001393,125.70149 2.45464924,125 C2.95920774,125.442549 3.67285912,125.788431 3.92782382,126.346378 C4.60436061,127.826896 5.07983781,129.400088 5.64054211,130.934481 C8.88899656,139.823964 12.1383352,148.713146 15.3910402,157.601051 C15.5042401,157.910373 15.6561423,158.205323 15.9868558,158.950546 C17.2271271,155.469022 18.3352861,152.382559 19.4264682,149.290036 C21.4870013,143.450295 23.514501,137.598535 25.6235439,131.776622 C25.8727955,131.088566 26.546793,130.55621 27.0239008,129.951675 C27.4813375,130.57166 28.1204909,131.126076 28.3685602,131.82162 C31.3873228,140.285668 34.3477054,148.770776 37.3271625,157.24901 C37.4803155,157.684811 37.6689033,158.107991 38.0084348,158.954527 C39.3809058,155.223077 40.6236976,151.873941 41.8452123,148.51698 C44.4293342,141.415335 47.0020362,134.309483 49.5807192,127.205835 C49.7200875,126.821892 49.7766501,126.347717 50.0387092,126.082441 C50.4498887,125.666184 51.0034174,125.392231 51.4966619,125.058019 C51.6701463,125.632918 52.1187829,126.295245 51.9703784,126.767881 C51.2569505,129.039922 50.3887333,131.263134 49.5637235,133.499293 C46.8290811,140.91145 44.0893978,148.321729 41.2789943,155.87515 Z" id="Path"></path>
                <path d="M93.9135482,155.619347 C93.9141119,156.990006 94.0181363,158.169043 93.8827051,159.318425 C93.7722598,160.255905 94.6250032,161.74958 92.9196264,161.876314 C92.6862121,161.893654 92.1751712,160.159905 92.0645174,159.203804 C91.9157906,157.918765 92.0471167,156.601283 92.0264198,155.29825 C92.0172904,154.722956 91.929993,154.148993 91.8598879,153.371547 C85.1917133,163.799575 74.5187227,164.328729 67.7492567,161.595829 C60.0950023,158.505745 55.5972689,151.047199 56.0284384,141.984816 C56.4020629,134.132306 61.9069774,126.938576 69.156347,124.83465 C77.2248841,122.492974 86.7410605,124.990197 92.0139572,133.447592 C92.0139572,132.709626 92.0114332,131.97166 92.014472,131.233707 C92.0212729,129.587626 91.968495,127.937135 92.0788179,126.298268 C92.1102495,125.831249 92.6187784,125.397982 92.9085242,124.949246 C93.2470285,125.431707 93.6246849,125.891815 93.904848,126.407599 C94.0178054,126.615532 93.9144063,126.945373 93.9143818,127.219739 C93.91372,136.61812 93.9136341,146.016501 93.9135482,155.619347 M58.2390973,139.711936 C57.4342542,144.928099 58.17855,149.832463 61.2523686,154.170129 C65.6822392,160.421442 73.9059366,162.754762 81.3740771,159.978486 C88.3974829,157.367546 92.6873637,150.163976 92.1503079,141.883036 C91.6065119,133.498206 85.0127927,126.583263 76.9854041,125.979371 C67.6224887,125.274979 60.0985315,130.686157 58.2390973,139.711936 Z" id="Shape"></path>
                <path d="M170.236682,133.236709 C171.183829,136.080009 172.128905,138.775833 172.877499,141.525943 C173.326881,143.176917 172.519721,143.780842 170.787398,143.770158 C159.885937,143.702898 148.983853,143.736157 138.081981,143.736182 C137.476804,143.736182 136.871641,143.736157 136.276433,143.736157 C135.729697,152.149163 142.772763,160.118818 151.482176,160.96331 C158.923794,161.684847 164.793126,159.043148 168.785332,152.491869 C169.106553,151.964705 169.961573,151.767679 170.568534,151.417255 C170.539688,152.083072 170.730829,152.867821 170.449058,153.39692 C166.197265,161.380716 156.130325,164.994236 146.935286,161.897547 C138.228282,158.965217 132.863527,150.203246 134.20466,141.105268 C135.483234,132.43166 141.066042,126.261965 149.247334,124.481198 C157.506866,122.683401 165.52343,125.993217 170.236682,133.236709 M137.081934,141.900349 C148.301135,141.900349 159.520324,141.900349 170.894522,141.900349 C170.603768,137.258384 168.728463,133.632421 165.570941,130.706275 C160.403641,125.917611 154.319063,124.655223 147.756333,126.93335 C141.430682,129.129159 137.442781,133.625885 136.422858,140.46865 C136.356795,140.911912 136.626426,141.405955 137.081934,141.900349 Z" id="Shape"></path>
                <path d="M110.747366,144.689677 C112.727622,149.315491 114.655868,153.79572 116.747867,158.656418 C117.299678,157.455558 117.727505,156.586381 118.103586,155.696507 C122.118113,146.197452 126.097051,136.683892 130.178047,127.212006 C130.560664,126.323959 131.982184,124.939149 132.22714,125.065069 C133.843885,125.896139 132.480232,127.032052 132.111229,127.917757 C127.760719,138.360144 123.355742,148.781344 118.881564,159.174025 C118.542836,159.960833 117.486591,161.073096 116.909845,160.99622 C116.092147,160.88722 115.075182,159.950362 114.720939,159.130695 C110.179183,148.6214 105.740367,138.069941 101.276553,127.528743 C101.171976,127.281759 100.995201,127.027884 101,126.780005 C101.01185,126.185791 101.111867,125.593233 101.176271,125 C101.716798,125.357565 102.535377,125.597855 102.754744,126.090867 C104.905996,130.925621 106.957393,135.802478 109.037277,140.66732 C109.589793,141.959646 110.142637,143.25185 110.747366,144.689677 Z" id="Path"></path>
            </g>
        </g>
    </g>
</svg>