<svg id="Layer_2" xmlns="http://www.w3.org/2000/svg" viewBox="0 0 843.28 165.34"><defs><style>.cls-1{fill:#fff;stroke-width:0px;}</style></defs><g id="Layer_1-2"><g id="WHT"><path class="cls-1" d="m260.2,163.6h-36v-29c-.7-.2-1.5-.3-2.2-.5-2.4,4-4.6,8-7.1,11.9-9.2,14.4-22.3,20.5-39.3,17.4-11.8-2.1-19.7-8.8-22.4-20.6-1.1-4.7-1.4-9.6-1.4-14.4-.2-18.3-.1-36.6-.1-55.3-2.8-1.9-5.4-3.6-9.8-6.6,13.2-5.2,24.7-9.7,37.4-14.7.4,4.1.9,6.9.9,9.7.1,24.3,0,48.6.1,72.9,0,4.4.2,9.1,1.5,13.3,2.8,9.3,11.2,12.5,19.5,7.3,3.4-2.1,6.4-5.3,8.6-8.6,8.6-12.9,14.9-26.6,14.1-42.8-.5-10-.1-20.1-.1-30.5-3-1.9-5.7-3.6-10.2-6.5,13.1-5.2,24.6-9.7,37.3-14.7.4,4,.9,6.8.9,9.6.1,22.8.1,45.6,0,68.4,0,11.5-1.9,23.4,10.1,31.6-.5.6-1.2,1.3-1.8,2.1Z"/><path class="cls-1" d="m436.3,105.8c0-12.2.4-23-.1-33.8-.3-6.4-1.9-13-8.8-15.7-6.9-2.7-13.4-.4-18.6,4.4-5.2,4.8-9.7,10.2-15.2,16.2-6.1-4-12.2-8.1-19.1-12.7,8.7-7.3,18.3-9.6,27.9-11.7,12.5-2.7,25.2-3.4,37.6.7,17.2,5.7,24.8,16.1,25,34.1.1,13.8,0,27.6.1,41.4.1,11.7-2.8,24.3,10.9,32.4-.7.5-1.4.9-2.1,1.4h-36.4c-.3-5-.6-9.8-1-16.2-10.4,12-21.8,19.8-37.2,18.3-10-1-18.7-4.9-25.5-12.5-13.4-15.1-12.6-38.8,1.8-52.8,16.1-15.8,38.6-13.8,60.7,6.5Zm.5,22.4c0-9.2-2.1-16.3-7-22.3-8.3-10.1-21.4-10.5-30.2-1-11,11.8-10.4,33.8,1.1,45,8.6,8.3,20.9,7.8,28.6-1.4,5.2-6.4,7.7-13.7,7.5-20.3Z"/><path class="cls-1" d="m91,100.7h-53.1c-4.6,12.5-9.2,24.7-13.3,37.1-.7,2.3.4,5.8,1.8,8,3.6,5.5,7.9,10.6,12.8,17.2H0c4.4-5.2,7.7-9.4,11.5-13.2,5.1-5.2,8.3-11.3,10.7-18.1,11.6-33.1,23.3-66.2,35.6-99.1,3.3-8.9,4.9-17,.1-25.7-.8-1.5-.9-3.5-1.5-6.2h26.6c1.1,2.6,2.4,5.6,3.5,8.7,13.8,38.7,27.6,77.4,41.4,116.1,4.6,12.9,7.7,26.5,20.6,37.4h-47.9c.1-.9-.2-2.3.4-2.8,8.3-7.2,6.7-15.2,3-24.1-4.8-11.5-8.6-23.2-13-35.3Zm-1.6-5.3c-8.2-23.1-16-44.9-23.7-66.7h-2.1c-7.7,21.9-15.5,43.8-23.6,66.7h49.4Z"/><path class="cls-1" d="m666.3,87.8c-.1,22.4,4.8,41.4,20.8,56.1,16.6,15.1,42.5,11.5,56.1-7.3,1.9-2.7,3.6-5.5,5.8-9.1-1,18.5-23.8,36-47.9,37.7-28.1,1.9-54.5-18.9-59.8-47.1-5.4-28.8,11.7-56.8,40.5-65.1,33.3-9.6,60.2,10.5,68.5,33.9-27.7,1.1-55.1-.1-84,.9Zm.5-5.4h51.5c-4.3-10.9-11.2-18-20-23.1-12-7-23-3.2-28.2,9.7-1.7,4-2.2,8.4-3.3,13.4Z"/><path class="cls-1" d="m599.8,21.5c-3.3-2.1-5.7-3.7-9.5-6,11.7-6.6,23.8-9.7,36.8-15.5.2,5.5.4,9.4.4,13.2v117.6q0,17.5,9.1,30.7c-7,2.5-31.7,3.1-45.4,1,0-.7-.3-1.7,0-2,7.7-7.2,8.9-16.3,8.8-26.4-.5-37.4-.2-74.7-.2-112.6Z"/><path class="cls-1" d="m840,53.5v24.5c-10.2-5.9-19.5-10.6-27.9-16.5-8.3-5.8-16.9-5.3-25.8-3.5-7.1,1.5-9.4,6.3-5.5,12.5,2.7,4.3,6.5,8.3,10.4,11.6,11.6,10,23.6,19.5,35.2,29.5,4.5,3.9,9,8,12.3,12.9,9,13.4,4.3,28.7-10.3,35.5-3,1.4-6.3,2.6-9.5,3.2-18.5,3.4-37.1,1.7-56.4,1.8v-24.1c2.8,1.2,5.5,2,7.9,3.4,7.8,4.4,15.6,8.8,23.2,13.6,7.8,4.9,15.8,3.8,23.7,1.2,6.5-2.1,8.2-6.5,4.3-12.2-3.5-5.2-8-9.9-12.7-14-11-9.5-22.9-18.1-33.7-27.9-5.4-4.9-10.5-10.8-13.7-17.3-6.3-12.8-1.2-24.8,11.9-30.3,4.7-2,10-3.6,15.1-3.8,16.8-.4,33.6-.1,51.5-.1Z"/><path class="cls-1" d="m586.5,87.1h-28.2c-1.5-2.5-3-5.6-5-8.1-4.9-6-9.4-12.8-15.5-17.4-14.3-11-28.5-6-33.7,11.4-1.4,4.6-2.1,9.5-2.2,14.3-.3,16,3.3,31.2,11.7,44.9,16.4,26.5,46.6,28.3,66.1,4.1,1.1-1.4,2.3-2.7,3.8-4.5-.3,15.8-28.2,34.5-51.3,33.4-28.5-1.5-52.4-23.4-55.3-51-3-29.1,15.1-55.6,43.5-62.1,33-7.6,58.2,12.1,66.1,35Z"/><path class="cls-1" d="m322.3,163h-45.1c0-1.2-.3-2.3,0-2.6,7.9-7.2,9-16.3,8.7-26.4-.5-20.1-.1-40.3-.1-60.9-2.8-1.8-5.5-3.6-9.7-6.3,12.3-6,24-10,37.3-14.9v26c14.7-16.9,31-27.7,54.9-27-1.9,10.4-3.5,19.6-5.3,29.2-7-2.8-12.6-5.7-18.5-7.4-15.6-4.3-30.6,7.1-30.9,23.2-.2,11.9.3,23.9-.2,35.9-.4,11.1-.2,21.7,10.3,29.3-.5.7-1,1.3-1.4,1.9Z"/></g></g></svg>